<?xml version="1.0" encoding="UTF-8" standalone="no"?>
<!-- Created with Inkscape (http://www.inkscape.org/) -->

<svg
   xmlns:dc="http://purl.org/dc/elements/1.1/"
   xmlns:cc="http://creativecommons.org/ns#"
   xmlns:rdf="http://www.w3.org/1999/02/22-rdf-syntax-ns#"
   xmlns:svg="http://www.w3.org/2000/svg"
   xmlns="http://www.w3.org/2000/svg"
   xmlns:sodipodi="http://sodipodi.sourceforge.net/DTD/sodipodi-0.dtd"
   xmlns:inkscape="http://www.inkscape.org/namespaces/inkscape"
   width="4.2333522mm"
   height="4.233314mm"
   viewBox="0 0 15.000067 14.999932"
   id="svg2"
   version="1.1"
   inkscape:version="0.92.3 (2405546, 2018-03-11)"
   sodipodi:docname="grain.svg">
  <defs
     id="defs4" />
  <sodipodi:namedview
     id="base"
     pagecolor="#ffffff"
     bordercolor="#666666"
     borderopacity="1.0"
     inkscape:pageopacity="0.0"
     inkscape:pageshadow="2"
     inkscape:zoom="8"
     inkscape:cx="6.9868233"
     inkscape:cy="9.108875"
     inkscape:document-units="px"
     inkscape:current-layer="layer1"
     showgrid="false"
     inkscape:window-width="1366"
     inkscape:window-height="703"
     inkscape:window-x="0"
     inkscape:window-y="0"
     inkscape:window-maximized="1"
     fit-margin-top="0"
     fit-margin-left="0"
     fit-margin-right="0"
     fit-margin-bottom="0"
     inkscape:snap-bbox="true"
     inkscape:bbox-paths="true"
     inkscape:bbox-nodes="true"
     inkscape:snap-bbox-edge-midpoints="true"
     inkscape:snap-bbox-midpoints="true"
     inkscape:snap-intersection-paths="true"
     inkscape:object-paths="true"
     inkscape:snap-smooth-nodes="true"
     inkscape:object-nodes="true"
     inkscape:snap-midpoints="true"
     inkscape:snap-object-midpoints="true"
     inkscape:snap-center="true" />
  <metadata
     id="metadata7">
    <rdf:RDF>
      <cc:Work
         rdf:about="">
        <dc:format>image/svg+xml</dc:format>
        <dc:type
           rdf:resource="http://purl.org/dc/dcmitype/StillImage" />
        <dc:title />
      </cc:Work>
    </rdf:RDF>
  </metadata>
  <g
     inkscape:label="Layer 1"
     inkscape:groupmode="layer"
     id="layer1"
     transform="translate(-247.03115,-409.54131)">
    <circle
       style="opacity:1;fill:#ffffff;fill-opacity:1;stroke:none;stroke-width:1.50000012;stroke-linecap:round;stroke-linejoin:round;stroke-miterlimit:4;stroke-dasharray:none;stroke-dashoffset:0;stroke-opacity:1"
       id="path826"
       cx="254.53119"
       cy="417.04129"
       r="7.5" />
    <path
       style="fill:#957657;fill-opacity:1"
       d="m 253.94647,424.53058 c -1.05645,-0.10714 -1.9689,-0.36935 -2.84698,-0.81812 -2.04001,-1.04261 -3.49958,-2.98505 -3.94681,-5.25254 -0.16164,-0.8195 -0.1621,-2.03268 -0.001,-2.8413 0.30615,-1.53753 0.96351,-2.76351 2.07982,-3.87887 1.11632,-1.11537 2.34332,-1.77217 3.88216,-2.07808 0.8093,-0.16087 2.0235,-0.16041 2.84371,10e-4 3.05619,0.60177 5.43977,3.02123 5.98163,6.07165 0.12296,0.6922 0.12296,1.91752 0,2.60972 -0.26983,1.51902 -0.98461,2.87735 -2.10118,3.99297 -0.61308,0.61257 -1.21901,1.05387 -1.94777,1.41859 -0.56549,0.28301 -1.2245,0.52123 -1.33,0.48079 -0.055,-0.0211 -0.0787,-0.10297 -0.0794,-0.27473 -5.6e-4,-0.13457 -0.0223,-0.39199 -0.0484,-0.57205 -0.0623,-0.43066 0.018,-0.58795 0.61468,-1.20423 0.2494,-0.25759 0.47776,-0.5322 0.50746,-0.61025 0.0813,-0.21375 0.0651,-0.61366 -0.0486,-1.19886 -0.12195,-0.62759 -0.12985,-1.02289 -0.0255,-1.27256 0.0422,-0.10104 0.0768,-0.19325 0.0768,-0.20491 0,-0.0575 -1.03032,0.76977 -1.24424,0.99909 -0.34529,0.37014 -0.54827,0.81826 -0.54783,1.20938 3.1e-4,0.28653 0.0695,0.84058 0.13417,1.0746 0.0155,0.0563 -0.0926,-0.13651 -0.24037,-0.42842 -0.14777,-0.29193 -0.34651,-0.60855 -0.44165,-0.70361 -0.39837,-0.39803 -1.01867,-0.57991 -1.98256,-0.58132 l -0.60945,-8.8e-4 0.20627,0.14929 c 0.23514,0.1702 0.49419,0.57212 0.72829,1.12997 0.19674,0.46884 0.45933,0.83862 0.67445,0.94977 0.0886,0.0458 0.37569,0.11545 0.63795,0.15482 0.46905,0.0704 0.94246,0.21536 1.11379,0.34103 0.0691,0.0507 0.0939,0.18186 0.11957,0.63229 l 0.0324,0.56835 -0.39935,0.0593 c -0.44115,0.0655 -1.47219,0.11042 -1.79207,0.078 z m 2.12982,-4.90564 c 0.22012,-0.22909 0.42441,-0.48009 0.45397,-0.55777 0.0739,-0.19416 0.0673,-0.4727 -0.021,-0.89211 -0.12836,-0.60967 -0.14819,-0.98478 -0.0647,-1.22411 l 0.0754,-0.21625 -0.31368,0.21605 c -0.49211,0.33894 -0.98724,0.85599 -1.14094,1.19144 -0.12154,0.26525 -0.13148,0.33291 -0.10404,0.70814 0.0167,0.22819 0.0453,0.49547 0.0635,0.59398 0.0252,0.13597 -0.0177,0.0805 -0.17829,-0.23027 -0.26093,-0.50505 -0.54883,-0.79085 -0.95273,-0.94579 -0.25086,-0.0962 -0.43481,-0.12136 -1.02286,-0.1397 l -0.717,-0.0224 0.16051,0.10183 c 0.23338,0.14803 0.39048,0.37695 0.67328,0.98108 0.27684,0.59139 0.44861,0.82749 0.66319,0.9116 0.078,0.0306 0.35185,0.0906 0.60848,0.13332 0.45936,0.0765 0.81858,0.20062 1.01731,0.35148 0.0958,0.0727 0.1089,0.0605 0.25022,-0.23364 0.0943,-0.19621 0.29633,-0.4636 0.54933,-0.72692 z m -1.31384,-1.64954 c 0.0594,-0.14437 0.25067,-0.39907 0.47869,-0.63753 0.47753,-0.4994 0.50071,-0.5843 0.36736,-1.3456 -0.12103,-0.69103 -0.12362,-0.85693 -0.0166,-1.06375 l 0.0834,-0.16117 -0.14744,0.0952 c -0.61848,0.39953 -0.9952,0.77923 -1.18581,1.19522 -0.12871,0.28091 -0.13489,0.50056 -0.0309,1.0981 0.0216,0.12386 -0.018,0.0758 -0.15917,-0.19339 -0.38411,-0.73245 -0.68852,-0.90313 -1.66518,-0.93366 l -0.64018,-0.02 0.17089,0.13862 c 0.11276,0.0914 0.26549,0.33197 0.44902,0.7071 0.17434,0.35634 0.35088,0.63765 0.47307,0.75382 0.17581,0.16715 0.23872,0.19153 0.64141,0.24865 0.29108,0.0413 0.53933,0.1123 0.71323,0.20403 0.1467,0.0773 0.28979,0.14387 0.31795,0.14774 0.0282,0.004 0.0958,-0.10117 0.1502,-0.2334 z m -0.66726,-2.09447 c 0.0597,-0.14499 0.23268,-0.37138 0.446,-0.58368 0.19167,-0.19074 0.36309,-0.40495 0.38094,-0.476 0.0396,-0.15778 0.0101,-0.58405 -0.0793,-1.14608 -0.0588,-0.3695 -0.0571,-0.44721 0.0136,-0.62715 l 0.0807,-0.20539 -0.23518,0.16661 c -0.42474,0.30092 -0.83728,0.71716 -0.97274,0.98144 -0.13974,0.27266 -0.16318,0.50799 -0.0972,0.97617 l 0.036,0.25585 -0.18038,-0.32927 c -0.36135,-0.65965 -0.66303,-0.8209 -1.61213,-0.86168 l -0.5857,-0.0252 0.19802,0.1731 c 0.13577,0.1187 0.27431,0.33397 0.44073,0.68482 0.33635,0.70915 0.46928,0.82659 1.04024,0.91894 0.24725,0.04 0.55684,0.1284 0.68798,0.19647 0.13113,0.068 0.26147,0.12694 0.28964,0.13083 0.0282,0.004 0.0951,-0.0995 0.14872,-0.22981 z m -0.57275,-2.05264 c 0.30114,-0.56306 0.2233,-0.91184 -0.34547,-1.54792 -0.21391,-0.23922 -0.40205,-0.49875 -0.41809,-0.57673 -0.0371,-0.18044 -0.11827,-0.23425 -0.11869,-0.0787 -1.6e-4,0.065 -0.0693,0.35716 -0.15365,0.64926 -0.30162,1.04481 -0.15469,1.5467 0.51213,1.74937 0.30309,0.0921 0.38675,0.0609 0.52377,-0.19526 z"
       id="path4166"
       inkscape:connector-curvature="0" />
  </g>
</svg>
